<svg width="40" height="39" viewBox="0 0 40 39" fill="none" xmlns="http://www.w3.org/2000/svg">
    <path
        d="M7 29.25C7 27.5261 7.68482 25.8728 8.90381 24.6538C10.1228 23.4348 11.7761 22.75 13.5 22.75H26.5C28.2239 22.75 29.8772 23.4348 31.0962 24.6538C32.3152 25.8728 33 27.5261 33 29.25C33 30.112 32.6576 30.9386 32.0481 31.5481C31.4386 32.1576 30.612 32.5 29.75 32.5H10.25C9.38805 32.5 8.5614 32.1576 7.9519 31.5481C7.34241 30.9386 7 30.112 7 29.25Z"
        stroke="black" stroke-width="2" stroke-linejoin="round" />
    <path
        d="M20 16.25C22.6924 16.25 24.875 14.0674 24.875 11.375C24.875 8.68261 22.6924 6.5 20 6.5C17.3076 6.5 15.125 8.68261 15.125 11.375C15.125 14.0674 17.3076 16.25 20 16.25Z"
        stroke="black" stroke-width="2" />
</svg>