<?xml version="1.0" encoding="UTF-8"?>
<svg width="32px" height="32px" viewBox="0 0 24 24" version="1.1" xmlns="http://www.w3.org/2000/svg" xmlns:xlink="http://www.w3.org/1999/xlink">
    <g stroke="none" stroke-width="1" fill="none" fill-rule="evenodd">
        <path d="M12,2 C16.418278,2 20,5.581722 20,10 C20,14.418278 12,22 12,22 C12,22 4,14.418278 4,10 C4,5.581722 7.581722,2 12,2 Z" fill="#10b981" fill-rule="nonzero"></path>
        <path d="M12,6 C9.790861,6 8,7.790861 8,10 C8,12.209139 9.790861,14 12,14 C14.209139,14 16,12.209139 16,10 C16,7.790861 14.209139,6 12,6 Z M12,12 C10.8954305,12 10,11.1045695 10,10 C10,8.8954305 10.8954305,8 12,8 C13.1045695,8 14,8.8954305 14,10 C14,11.1045695 13.1045695,12 12,12 Z" fill="#FFFFFF"></path>
    </g>
</svg>
