<?xml version="1.0" encoding="UTF-8"?>
<svg width="32px" height="32px" viewBox="0 0 24 24" version="1.1" xmlns="http://www.w3.org/2000/svg" xmlns:xlink="http://www.w3.org/1999/xlink">
    <g stroke="none" stroke-width="1" fill="none" fill-rule="evenodd">
        <path d="M12,2 C16.418278,2 20,5.581722 20,10 C20,14.418278 12,22 12,22 C12,22 4,14.418278 4,10 C4,5.581722 7.581722,2 12,2 Z" fill="#3b82f6" fill-rule="nonzero"></path>
        <path d="M12,6 C10.8954305,6 10,6.8954305 10,8 L10,10 L8,10 C6.8954305,10 6,10.8954305 6,12 C6,13.1045695 6.8954305,14 8,14 L10,14 L10,16 C10,17.1045695 10.8954305,18 12,18 C13.1045695,18 14,17.1045695 14,16 L14,14 L16,14 C17.1045695,14 18,13.1045695 18,12 C18,10.8954305 17.1045695,10 16,10 L14,10 L14,8 C14,6.8954305 13.1045695,6 12,6 Z" fill="#FFFFFF"></path>
    </g>
</svg>
