<?xml version="1.0" standalone="no"?>
<!DOCTYPE svg PUBLIC "-//W3C//DTD SVG 20010904//EN"
 "http://www.w3.org/TR/2001/REC-SVG-20010904/DTD/svg10.dtd">
<svg version="1.0" xmlns="http://www.w3.org/2000/svg"
 width="512.000000pt" height="512.000000pt" viewBox="0 0 512.000000 512.000000"
 preserveAspectRatio="xMidYMid meet">

<g transform="translate(0.000000,512.000000) scale(0.100000,-0.100000)"
fill="#000000" stroke="none">
<path d="M2509 4231 l-29 -29 0 -227 0 -226 25 -24 c15 -16 36 -25 55 -25 19
0 40 9 55 25 l25 24 0 226 0 227 -29 29 c-16 16 -39 29 -51 29 -12 0 -35 -13
-51 -29z"/>
<path d="M934 3930 c-28 -11 -54 -48 -54 -77 0 -35 263 -381 296 -389 58 -15
114 34 101 87 -6 24 -240 343 -268 365 -22 18 -52 23 -75 14z"/>
<path d="M4130 3927 c-30 -15 -278 -339 -287 -375 -13 -54 43 -103 101 -88 34
8 296 354 296 391 0 27 -36 71 -65 79 -11 3 -31 0 -45 -7z"/>
<path d="M2335 3484 c-16 -2 -70 -9 -120 -15 -425 -52 -860 -230 -1222 -500
-131 -98 -390 -358 -489 -491 -97 -130 -184 -274 -184 -303 0 -60 233 -377
405 -550 399 -403 885 -649 1456 -736 206 -31 552 -31 758 0 687 105 1271 450
1682 996 92 123 179 263 179 290 0 12 -24 61 -53 109 -175 289 -453 578 -742
771 -358 240 -756 382 -1184 425 -94 9 -415 12 -486 4z m605 -179 c507 -80
971 -315 1330 -675 116 -115 284 -325 337 -417 l21 -39 -59 -88 c-133 -201
-353 -433 -540 -574 -336 -252 -715 -409 -1134 -468 -166 -24 -507 -24 -670 0
-452 65 -846 236 -1190 513 -180 145 -393 382 -508 564 l-36 56 48 74 c249
384 629 702 1063 888 202 87 466 156 688 180 128 14 526 6 650 -14z"/>
<path d="M2442 3130 c-336 -47 -610 -248 -752 -554 -65 -139 -84 -228 -84
-401 1 -167 16 -243 77 -384 123 -286 391 -498 702 -556 119 -23 307 -16 420
15 171 46 314 131 442 262 122 126 197 258 245 436 31 114 31 334 0 457 -75
300 -299 555 -585 665 -142 55 -328 79 -465 60z m308 -176 c36 -9 112 -39 170
-67 93 -45 116 -62 200 -146 78 -78 105 -113 143 -187 71 -139 91 -223 91
-379 0 -153 -15 -218 -79 -350 -98 -202 -270 -346 -495 -417 -64 -20 -96 -23
-220 -23 -166 0 -236 16 -370 86 -467 242 -573 872 -211 1252 131 138 311 228
501 251 58 7 201 -4 270 -20z"/>
<path d="M2480 2650 c-157 -29 -281 -124 -351 -265 -131 -266 20 -595 306
-670 263 -68 522 85 590 350 49 192 -37 407 -206 515 -93 60 -236 90 -339 70z
m206 -179 c62 -28 138 -103 165 -164 35 -79 34 -192 -4 -269 -116 -236 -458
-236 -574 0 -38 76 -40 191 -5 267 41 89 127 161 219 185 53 13 146 4 199 -19z"/>
</g>
</svg>
