<?xml version="1.0" standalone="no"?>
<!DOCTYPE svg PUBLIC "-//W3C//DTD SVG 20010904//EN"
 "http://www.w3.org/TR/2001/REC-SVG-20010904/DTD/svg10.dtd">
<svg version="1.0" xmlns="http://www.w3.org/2000/svg"
 width="512.000000pt" height="512.000000pt" viewBox="0 0 512.000000 512.000000"
 preserveAspectRatio="xMidYMid meet">

<g transform="translate(0.000000,512.000000) scale(0.100000,-0.100000)"
fill="#000000" stroke="none">
<path d="M2445 4794 c-16 -2 -73 -9 -125 -15 -437 -49 -876 -229 -1195 -489
-423 -346 -697 -853 -776 -1440 -17 -122 -17 -458 0 -580 59 -433 227 -835
481 -1145 347 -425 845 -692 1455 -781 164 -24 451 -25 600 -1 481 78 895 283
1233 611 349 338 565 752 653 1253 31 171 33 509 6 678 -38 231 -101 436 -192
630 -47 102 -72 128 -117 128 -34 0 -78 -40 -78 -72 0 -10 23 -66 51 -125 147
-313 218 -680 191 -994 -48 -562 -247 -1018 -596 -1368 -305 -304 -700 -499
-1156 -570 -139 -22 -482 -25 -605 -6 -253 40 -444 97 -637 190 -643 308
-1033 867 -1139 1632 -19 137 -17 441 4 565 99 578 417 1062 912 1390 251 166
525 275 830 330 139 26 443 31 588 11 220 -31 444 -99 629 -192 96 -48 113
-52 146 -28 33 22 43 57 30 94 -9 26 -26 39 -112 79 -199 96 -414 162 -631
196 -98 15 -390 28 -450 19z"/>
<path d="M4115 4670 c-11 -4 -159 -148 -329 -318 l-309 -310 7 -64 c3 -34 11
-128 17 -207 l11 -144 -510 -511 c-281 -281 -513 -521 -517 -534 -16 -54 43
-113 97 -97 13 4 253 236 534 517 l511 510 144 -11 c79 -6 173 -14 207 -17
l64 -7 310 309 c170 170 314 319 319 332 6 16 4 34 -5 57 -18 43 -42 49 -251
64 -87 7 -161 13 -162 15 -1 1 -9 83 -17 183 -7 99 -19 189 -25 200 -8 16 -66
48 -75 42 -1 0 -10 -4 -21 -9z m-26 -405 c14 -163 14 -162 190 -177 l133 -11
-216 -216 -216 -216 -151 11 c-82 7 -153 14 -156 18 -3 3 -11 72 -18 153 l-11
148 215 218 c119 119 217 212 218 205 1 -7 7 -67 12 -133z"/>
<path d="M2450 4074 c-267 -32 -484 -100 -675 -211 -238 -138 -438 -351 -564
-602 -54 -106 -115 -288 -138 -411 -24 -133 -24 -447 0 -580 104 -554 486
-988 1013 -1149 401 -123 764 -101 1123 66 156 72 281 162 422 302 231 232
366 487 425 806 25 135 26 402 1 530 -36 184 -131 437 -182 485 -35 33 -82 31
-112 -4 -31 -37 -29 -54 18 -147 171 -340 184 -735 36 -1098 -176 -433 -540
-742 -987 -838 -120 -25 -399 -25 -525 1 -423 88 -773 353 -963 732 -42 84
-96 242 -118 349 -26 126 -26 405 -1 525 57 267 171 474 372 676 198 199 435
328 715 389 116 25 344 30 465 11 120 -20 274 -70 384 -125 93 -47 110 -49
147 -18 33 29 37 76 8 108 -44 50 -290 145 -463 180 -93 18 -327 32 -401 23z"/>
<path d="M2417 3344 c-313 -57 -546 -272 -628 -579 -29 -110 -29 -298 -1 -406
84 -315 315 -528 637 -584 109 -19 182 -19 277 -1 347 67 599 331 650 680 15
108 -1 287 -32 351 -36 74 -104 83 -146 20 -16 -24 -16 -30 2 -93 29 -102 25
-262 -9 -367 -70 -212 -230 -365 -442 -420 -80 -21 -251 -21 -330 0 -115 31
-204 82 -286 164 -248 249 -250 650 -4 896 165 165 380 228 600 176 103 -25
135 -19 155 30 10 23 10 36 -1 60 -17 41 -70 65 -179 78 -107 14 -166 13 -263
-5z"/>
</g>
</svg>
