<svg width="738" height="246" viewBox="0 0 738 246" fill="none" xmlns="http://www.w3.org/2000/svg">
<path d="M200.08 164.48H183V147.4C183 146.056 181.904 144.96 180.56 144.96H161.04C159.696 144.96 158.6 146.056 158.6 147.4V164.48H141.52C140.176 164.48 139.08 165.576 139.08 166.92V186.44C139.08 187.784 140.176 188.88 141.52 188.88H158.6V205.96C158.6 207.304 159.696 208.4 161.04 208.4H180.56C181.904 208.4 183 207.304 183 205.96V188.88H200.08C201.424 188.88 202.52 187.784 202.52 186.44V166.92C202.52 165.576 201.424 164.48 200.08 164.48ZM197.64 184H180.56C179.216 184 178.12 185.096 178.12 186.44V203.52H163.48V186.44C163.48 185.096 162.384 184 161.04 184H143.96V169.36H161.04C162.384 169.36 163.48 168.264 163.48 166.92V149.84H178.12V166.92C178.12 168.264 179.216 169.36 180.56 169.36H197.64V184ZM139.88 203.835C129.634 213.061 116.338 218.16 102.48 218.16C87.5255 218.16 73.4196 212.327 62.8007 201.719C52.1923 191.129 46.3593 177.023 46.3593 162.039V159.237C48.4085 161.925 50.7723 164.146 52.9453 165.871C55.9192 168.235 59.1693 170.265 62.3144 172.238C63.1913 172.772 64.0491 173.334 64.926 173.877C65.3453 174.144 65.7838 174.268 66.2413 174.268C67.0419 174.268 67.8235 173.877 68.2905 173.143C69.0244 172 68.6813 170.513 67.5375 169.779C66.6606 169.217 65.7838 168.654 64.907 168.12C61.8855 166.243 58.7594 164.27 55.9761 162.068C51.954 158.875 46.9976 153.719 46.3591 147.257V99.0665C50.5336 105.043 56.729 110.466 64.9736 115.222C68.7097 117.367 72.589 119.301 76.3445 121.179C82.349 124.153 88.5445 127.231 94.0059 131.206C95.8073 132.502 97.4944 133.989 99.0765 135.524C93.4625 142.138 90.3459 149.649 90.2886 157.169C90.2886 158.513 91.3656 159.609 92.7 159.638H92.7286C94.0725 159.638 95.1686 158.561 95.1686 157.226C95.2639 143.997 106.244 134.628 110.981 131.216C116.423 127.26 122.619 124.191 128.595 121.208C132.35 119.33 136.258 117.405 139.994 115.251C148.239 110.495 154.444 105.071 158.609 99.0954L158.628 127.88C158.628 129.224 159.724 130.32 161.068 130.32C162.412 130.32 163.508 129.224 163.508 127.88V83.96C163.508 67.6806 157.16 52.384 145.646 40.8208C134.075 29.307 118.777 22.9593 102.48 22.9593C68.8351 22.9593 41.4803 50.3142 41.4803 83.9593V162.039C41.4803 178.338 47.8282 193.664 59.3418 205.179C70.9033 216.692 86.2013 223.04 102.481 223.04C117.559 223.04 132.01 217.502 143.161 207.447C144.162 206.542 144.238 205.007 143.332 204.006C142.427 203.005 140.881 202.939 139.88 203.835ZM102.48 27.8398C117.463 27.8398 131.57 33.6728 142.159 44.2812C152.768 54.8991 158.601 69.0057 158.601 83.9605V88.402C155.818 96.9135 148.745 104.51 137.546 110.972C133.934 113.05 130.131 114.947 126.423 116.805C120.247 119.884 113.88 123.048 108.095 127.223C106.045 128.71 104.139 130.301 102.414 131.96C100.679 130.273 98.8495 128.662 96.848 127.223C91.0625 123.029 84.6765 119.855 78.5004 116.777C74.8119 114.947 70.9898 113.04 67.3965 110.972C56.1973 104.529 49.144 96.942 46.3419 88.402L46.3324 83.9605C46.361 53.0213 71.5408 27.8398 102.48 27.8398ZM82.96 76.6398C81.6161 76.6398 80.52 75.5437 80.52 74.1998C80.52 70.1777 83.8179 66.8798 87.84 66.8798C91.8621 66.8798 95.16 70.1777 95.16 74.1998C95.16 75.5437 94.0639 76.6398 92.72 76.6398C91.3761 76.6398 90.28 75.5437 90.28 74.1998C90.28 72.8559 89.1839 71.7598 87.84 71.7598C86.4961 71.7598 85.4 72.8559 85.4 74.1998C85.4 75.5437 84.3039 76.6398 82.96 76.6398ZM109.8 74.1998C109.8 70.1777 113.098 66.8798 117.12 66.8798C121.142 66.8798 124.44 70.1777 124.44 74.1998C124.44 75.5437 123.344 76.6398 122 76.6398C120.656 76.6398 119.56 75.5437 119.56 74.1998C119.56 72.8559 118.464 71.7598 117.12 71.7598C115.776 71.7598 114.68 72.8559 114.68 74.1998C114.68 75.5437 113.584 76.6398 112.24 76.6398C110.896 76.6398 109.8 75.5437 109.8 74.1998ZM102.48 115.68C123.096 115.68 139.08 93.3767 139.08 74.1998C139.08 54.0222 122.658 37.5998 102.48 37.5998C82.3024 37.5998 65.88 54.0222 65.88 74.1998C65.88 93.3767 81.864 115.68 102.48 115.68ZM102.48 42.4798C119.979 42.4798 134.2 56.7003 134.2 74.1998C134.2 91.1368 120.342 110.8 102.48 110.8C84.6185 110.8 70.76 91.1368 70.76 74.1998C70.76 56.7003 84.9806 42.4798 102.48 42.4798ZM95.16 91.2798C95.16 88.4489 98.2385 86.3998 102.48 86.3998C106.721 86.3998 109.8 88.449 109.8 91.2798C109.8 94.1105 106.721 96.1598 102.48 96.1598C98.2385 96.1598 95.16 94.1105 95.16 91.2798Z" fill="url(#paint0_linear_337_2305)"/>
<path d="M253.953 90.552H261.729C262.433 90.552 263.105 90.552 263.745 90.552C264.449 90.488 265.057 90.584 265.569 90.84C266.209 91.096 266.689 91.48 267.009 91.992C267.393 92.504 267.745 93.016 268.065 93.528L271.521 99C273.761 102.648 276.001 106.296 278.241 109.944C280.545 113.528 282.817 117.144 285.057 120.792C286.145 122.52 287.201 124.28 288.225 126.072C289.313 127.8 290.433 129.496 291.585 131.16C291.841 131.544 292.065 131.928 292.257 132.312C292.513 132.696 292.833 133.048 293.217 133.368C293.345 133.496 293.505 133.624 293.697 133.752C293.889 133.88 294.081 133.88 294.273 133.752C294.721 133.624 294.945 133.336 294.945 132.888C294.945 132.44 295.009 131.96 295.137 131.448C295.201 131 295.201 130.52 295.137 130.008C295.137 129.432 295.137 128.888 295.137 128.376V122.328V100.056V96.408C295.137 96.088 295.105 95.768 295.041 95.448C295.041 95.128 295.073 94.84 295.137 94.584V93.528C295.137 92.632 295.329 91.928 295.713 91.416C296.033 90.968 296.449 90.712 296.961 90.648C297.537 90.584 298.177 90.552 298.881 90.552H304.737C305.249 90.552 305.761 90.552 306.273 90.552C306.785 90.552 307.233 90.616 307.617 90.744C308.449 91.064 308.897 91.64 308.961 92.472C309.025 93.24 309.057 94.168 309.057 95.256V105.816V146.04V154.104C309.057 154.808 309.057 155.512 309.057 156.216C309.121 156.92 309.025 157.464 308.769 157.848C308.513 158.232 308.193 158.488 307.809 158.616C307.489 158.68 307.073 158.776 306.561 158.904H303.201H297.921C297.345 158.904 296.769 158.904 296.193 158.904C295.681 158.904 295.233 158.808 294.849 158.616C294.145 158.296 293.601 157.88 293.217 157.368C292.833 156.792 292.449 156.184 292.065 155.544C291.489 154.648 290.913 153.752 290.337 152.856C289.825 151.896 289.281 150.968 288.705 150.072L274.305 127.032C273.409 125.56 272.513 124.152 271.617 122.808C270.785 121.4 269.921 119.96 269.025 118.488C268.705 118.04 268.321 117.496 267.873 116.856C267.489 116.152 266.945 115.8 266.241 115.8C265.729 116.248 265.441 116.76 265.377 117.336C265.377 117.912 265.377 118.648 265.377 119.544V126.264V149.208V152.952C265.377 153.272 265.377 153.592 265.377 153.912C265.441 154.232 265.409 154.552 265.281 154.872V155.928C265.281 156.952 265.121 157.688 264.801 158.136C264.481 158.52 264.033 158.744 263.457 158.808C262.945 158.872 262.337 158.904 261.633 158.904H255.777C255.265 158.904 254.753 158.904 254.241 158.904C253.729 158.904 253.281 158.84 252.897 158.712C252.065 158.392 251.585 157.816 251.457 156.984C251.393 156.152 251.361 155.192 251.361 154.104V143.064V104.568V95.64C251.361 94.936 251.361 94.2 251.361 93.432C251.361 92.664 251.489 92.056 251.745 91.608C252.001 91.16 252.449 90.84 253.089 90.648C253.217 90.648 253.345 90.648 253.473 90.648C253.665 90.584 253.825 90.552 253.953 90.552ZM323.477 109.56H330.677C331.381 109.56 332.021 109.592 332.597 109.656C333.173 109.72 333.589 109.944 333.845 110.328C334.165 110.712 334.357 111.256 334.421 111.96C334.485 112.6 334.517 113.272 334.517 113.976V120.696V135C334.517 137.304 334.613 139.48 334.805 141.528C334.997 143.576 335.573 145.272 336.533 146.616C337.429 147.96 338.869 148.92 340.853 149.496C341.173 149.56 341.429 149.592 341.621 149.592C341.877 149.592 342.165 149.624 342.485 149.688C342.805 149.752 343.157 149.784 343.541 149.784C343.925 149.784 344.213 149.752 344.405 149.688C344.725 149.56 344.981 149.528 345.173 149.592C345.429 149.656 345.685 149.624 345.941 149.496C347.285 149.176 348.341 148.76 349.109 148.248C350.261 147.544 351.157 146.648 351.797 145.56C352.501 144.408 352.981 143.16 353.237 141.816C353.557 140.408 353.749 138.872 353.813 137.208C353.877 135.48 353.909 133.688 353.909 131.832V120.216V113.976C353.909 113.4 353.909 112.824 353.909 112.248C353.909 111.608 354.037 111.096 354.293 110.712C354.613 110.136 355.093 109.816 355.733 109.752C356.373 109.624 357.141 109.56 358.037 109.56H363.125C363.765 109.56 364.373 109.56 364.949 109.56C365.525 109.56 366.005 109.688 366.389 109.944C366.901 110.264 367.189 110.744 367.253 111.384C367.317 112.024 367.349 112.76 367.349 113.592V120.888V147.864V154.68C367.349 155.32 367.349 155.96 367.349 156.6C367.349 157.24 367.221 157.72 366.965 158.04C366.645 158.552 366.165 158.84 365.525 158.904C364.885 158.968 364.213 159 363.509 159H358.325C357.621 159 356.981 158.968 356.405 158.904C355.893 158.84 355.477 158.584 355.157 158.136C355.029 157.944 354.901 157.656 354.773 157.272C354.709 156.888 354.613 156.504 354.485 156.12C354.421 155.736 354.325 155.384 354.197 155.064C354.069 154.744 353.877 154.552 353.621 154.488C353.493 154.36 353.333 154.328 353.141 154.392C352.949 154.456 352.789 154.52 352.661 154.584C352.213 154.84 351.829 155.128 351.509 155.448C351.189 155.768 350.837 156.056 350.453 156.312C350.197 156.504 349.941 156.728 349.685 156.984C349.493 157.176 349.237 157.368 348.917 157.56C347.445 158.456 345.717 159.16 343.733 159.672C343.285 159.8 342.837 159.864 342.389 159.864C341.941 159.928 341.461 160.024 340.949 160.152C340.693 160.216 340.405 160.216 340.085 160.152C339.829 160.152 339.573 160.184 339.317 160.248C339.125 160.312 338.709 160.312 338.069 160.248C337.493 160.248 337.109 160.216 336.917 160.152C336.597 160.152 336.277 160.12 335.957 160.056C335.637 160.056 335.317 160.056 334.997 160.056C334.229 159.864 333.493 159.704 332.789 159.576C332.085 159.448 331.381 159.256 330.677 159C330.357 158.872 330.069 158.776 329.813 158.712C329.621 158.584 329.365 158.456 329.045 158.328C326.805 157.112 325.013 155.416 323.669 153.24C322.837 151.896 322.229 150.296 321.845 148.44C321.461 146.52 321.205 144.504 321.077 142.392C321.013 140.216 320.981 138.008 320.981 135.768C321.045 133.464 321.077 131.192 321.077 128.952V115.896C321.077 115.064 321.045 114.104 320.981 113.016C320.981 111.864 321.141 111.032 321.461 110.52C321.653 110.2 322.037 109.912 322.613 109.656C322.997 109.656 323.285 109.624 323.477 109.56ZM384.415 94.68H390.847C391.807 94.68 392.639 94.744 393.343 94.872C394.111 94.936 394.655 95.32 394.975 96.024C395.103 96.344 395.167 96.728 395.167 97.176C395.167 97.624 395.167 98.072 395.167 98.52V102.84C395.167 103.16 395.135 103.544 395.071 103.992C395.071 104.376 395.103 104.728 395.167 105.048V106.104C395.167 106.616 395.199 107.096 395.263 107.544C395.327 107.928 395.487 108.28 395.743 108.6C396.191 109.176 396.991 109.496 398.143 109.56C399.359 109.56 400.511 109.56 401.599 109.56C401.983 109.56 402.367 109.56 402.751 109.56C403.135 109.56 403.487 109.624 403.807 109.752C404.511 110.072 404.895 110.648 404.959 111.48C405.087 112.312 405.151 113.24 405.151 114.264C405.151 114.712 405.151 115.16 405.151 115.608C405.215 116.056 405.183 116.44 405.055 116.76C404.735 117.784 404.063 118.328 403.039 118.392C402.015 118.456 400.863 118.488 399.583 118.488C399.327 118.488 399.039 118.488 398.719 118.488C398.463 118.424 398.239 118.424 398.047 118.488C397.791 118.552 397.567 118.584 397.375 118.584C397.183 118.52 396.991 118.552 396.799 118.68C396.287 118.808 395.903 119.096 395.647 119.544C395.455 119.928 395.295 120.408 395.167 120.984C395.103 121.304 395.103 121.656 395.167 122.04C395.231 122.424 395.231 122.776 395.167 123.096V129.048V140.28C395.167 141.88 395.199 143.288 395.263 144.504C395.391 145.656 395.807 146.68 396.511 147.576C396.831 147.96 397.247 148.248 397.759 148.44C398.335 148.568 398.911 148.696 399.487 148.824C399.679 148.888 399.871 148.92 400.063 148.92C400.319 148.856 400.511 148.856 400.639 148.92H401.695C402.399 148.92 403.007 148.952 403.519 149.016C404.031 149.08 404.447 149.336 404.767 149.784C405.023 150.168 405.151 150.68 405.151 151.32C405.151 151.896 405.151 152.504 405.151 153.144C405.151 154.488 405.119 155.736 405.055 156.888C405.055 157.976 404.543 158.712 403.519 159.096C403.199 159.224 402.911 159.256 402.655 159.192C402.399 159.192 402.111 159.256 401.791 159.384H400.831C400.703 159.384 400.511 159.352 400.255 159.288C399.999 159.288 399.775 159.32 399.583 159.384C399.263 159.448 398.911 159.448 398.527 159.384C398.207 159.384 397.887 159.384 397.567 159.384C397.247 159.384 396.927 159.384 396.607 159.384C396.287 159.448 395.999 159.448 395.743 159.384H394.687C394.367 159.32 394.015 159.288 393.631 159.288C393.247 159.288 392.895 159.256 392.575 159.192C392.127 159.128 391.711 159.064 391.327 159C390.943 158.936 390.559 158.872 390.175 158.808C389.471 158.616 388.799 158.392 388.159 158.136C387.519 157.88 386.911 157.592 386.335 157.272C386.143 157.144 385.951 157.016 385.759 156.888C385.567 156.696 385.343 156.504 385.087 156.312C384.959 156.184 384.799 156.056 384.607 155.928C384.415 155.736 384.255 155.576 384.127 155.448C383.231 154.232 382.559 152.888 382.111 151.416C381.983 151.16 381.919 150.936 381.919 150.744C381.983 150.488 381.983 150.2 381.919 149.88C381.855 149.752 381.823 149.592 381.823 149.4C381.823 149.208 381.791 149.048 381.727 148.92V147.96C381.663 147.704 381.631 147.416 381.631 147.096C381.695 146.776 381.727 146.456 381.727 146.136V142.488V128.184V123.096C381.727 122.648 381.727 122.2 381.727 121.752C381.791 121.304 381.759 120.888 381.631 120.504C381.375 119.608 380.927 119.032 380.287 118.776C379.583 118.456 378.687 118.36 377.599 118.488C376.511 118.616 375.583 118.52 374.815 118.2C374.303 118.008 373.983 117.72 373.855 117.336C373.727 116.952 373.599 116.472 373.471 115.896V113.88C373.471 112.728 373.535 111.8 373.663 111.096C373.791 110.392 374.335 109.912 375.295 109.656C375.551 109.528 375.807 109.496 376.063 109.56C376.319 109.56 376.607 109.56 376.927 109.56C377.887 109.56 378.783 109.528 379.615 109.464C380.447 109.336 381.023 108.952 381.343 108.312C381.535 107.864 381.631 107.352 381.631 106.776C381.695 106.2 381.727 105.624 381.727 105.048V99.096C381.727 98.584 381.727 98.04 381.727 97.464C381.727 96.888 381.791 96.408 381.919 96.024C382.239 95.384 382.719 94.968 383.359 94.776C383.487 94.712 383.647 94.712 383.839 94.776C384.095 94.776 384.287 94.744 384.415 94.68ZM439.765 108.216C440.469 108.216 441.077 108.28 441.589 108.408C442.165 108.536 442.613 108.824 442.933 109.272C443.317 109.784 443.509 110.68 443.509 111.96C443.509 113.176 443.509 114.264 443.509 115.224C443.509 115.928 443.509 116.728 443.509 117.624C443.573 118.52 443.477 119.224 443.221 119.736C442.965 120.184 442.581 120.472 442.069 120.6C441.621 120.728 441.077 120.792 440.437 120.792C439.861 120.792 439.221 120.76 438.517 120.696C437.877 120.632 437.269 120.664 436.693 120.792C436.245 120.92 435.797 121.016 435.349 121.08C434.901 121.08 434.485 121.144 434.101 121.272C433.077 121.592 432.053 122.072 431.029 122.712C430.005 123.288 429.205 123.96 428.629 124.728C428.309 125.24 427.957 125.784 427.573 126.36C427.253 126.872 426.933 127.416 426.613 127.992C426.421 128.504 426.229 129.048 426.037 129.624C425.909 130.136 425.781 130.648 425.653 131.16C425.525 131.608 425.461 132.088 425.461 132.6C425.461 133.048 425.397 133.496 425.269 133.944C425.205 134.2 425.173 134.456 425.173 134.712C425.237 134.904 425.237 135.096 425.173 135.288V136.824C425.045 137.272 425.013 137.784 425.077 138.36C425.141 138.872 425.173 139.384 425.173 139.896V146.04V154.2C425.173 155.032 425.141 155.8 425.077 156.504C425.013 157.208 424.821 157.784 424.501 158.232C424.373 158.424 424.149 158.584 423.829 158.712C423.573 158.776 423.285 158.84 422.965 158.904H422.485C422.165 158.968 421.813 159 421.429 159C421.045 159 420.693 159 420.373 159H416.245C415.861 158.936 415.445 158.904 414.997 158.904C414.613 158.904 414.197 158.904 413.749 158.904C413.429 158.776 413.109 158.68 412.789 158.616C412.469 158.488 412.245 158.264 412.117 157.944C411.861 157.624 411.701 157.176 411.637 156.6C411.637 155.96 411.637 155.32 411.637 154.68V148.152V121.08V113.976C411.637 113.336 411.637 112.728 411.637 112.152C411.637 111.512 411.765 111 412.021 110.616C412.341 110.104 412.821 109.784 413.461 109.656C414.101 109.528 414.869 109.464 415.765 109.464H420.661C421.429 109.464 422.101 109.528 422.677 109.656C423.253 109.72 423.701 110.008 424.021 110.52C424.213 110.84 424.309 111.288 424.309 111.864C424.373 112.44 424.437 113.016 424.501 113.592C424.565 114.104 424.661 114.584 424.789 115.032C424.981 115.48 425.301 115.704 425.749 115.704C425.877 115.576 426.005 115.512 426.133 115.512C426.261 115.512 426.389 115.448 426.517 115.32C426.901 115 427.221 114.648 427.477 114.264C427.797 113.816 428.181 113.432 428.629 113.112C428.885 112.92 429.109 112.728 429.301 112.536C429.493 112.28 429.717 112.056 429.973 111.864C430.549 111.48 431.125 111.096 431.701 110.712C432.341 110.328 432.981 109.976 433.621 109.656C434.261 109.4 434.901 109.176 435.541 108.984C436.245 108.792 436.949 108.6 437.653 108.408C437.845 108.344 438.197 108.344 438.709 108.408C439.285 108.408 439.637 108.344 439.765 108.216ZM462.198 91.224C462.646 91.736 462.87 92.504 462.87 93.528C462.87 94.552 462.87 95.544 462.87 96.504C462.87 97.336 462.87 98.2 462.87 99.096C462.87 99.992 462.646 100.6 462.198 100.92C461.814 101.24 461.302 101.432 460.662 101.496C460.086 101.56 459.446 101.592 458.742 101.592H453.366C452.662 101.592 452.022 101.56 451.446 101.496C450.934 101.432 450.486 101.24 450.102 100.92C449.846 100.728 449.654 100.376 449.526 99.864C449.462 99.288 449.398 98.68 449.334 98.04C449.334 97.336 449.334 96.632 449.334 95.928C449.398 95.224 449.43 94.616 449.43 94.104C449.43 93.592 449.43 93.144 449.43 92.76C449.494 92.312 449.622 91.928 449.814 91.608C449.942 91.352 450.102 91.16 450.294 91.032C450.55 90.904 450.806 90.776 451.062 90.648C451.19 90.648 451.35 90.648 451.542 90.648C451.734 90.584 451.894 90.552 452.022 90.552H459.03C459.67 90.552 460.278 90.584 460.854 90.648C461.43 90.712 461.878 90.904 462.198 91.224ZM462.87 153.72C462.87 155 462.838 156.088 462.774 156.984C462.71 157.88 462.134 158.488 461.046 158.808C460.662 158.936 460.246 159 459.798 159C459.35 158.936 458.87 158.904 458.358 158.904H452.982C452.406 158.904 451.83 158.872 451.254 158.808C450.742 158.744 450.358 158.552 450.102 158.232C449.718 157.784 449.494 157.24 449.43 156.6C449.43 155.896 449.43 155.16 449.43 154.392V113.88C449.43 113.24 449.43 112.6 449.43 111.96C449.43 111.32 449.558 110.808 449.814 110.424C450.198 109.976 450.742 109.688 451.446 109.56C451.574 109.496 451.734 109.496 451.926 109.56C452.182 109.56 452.374 109.528 452.502 109.464H457.302C457.686 109.464 458.102 109.464 458.55 109.464C459.062 109.4 459.478 109.4 459.798 109.464H460.566C460.95 109.592 461.302 109.688 461.622 109.752C461.942 109.816 462.198 110.008 462.39 110.328C462.646 110.648 462.774 111.096 462.774 111.672C462.838 112.248 462.87 112.856 462.87 113.496V153.72ZM477.732 90.552H513.636H521.988C522.756 90.552 523.492 90.584 524.196 90.648C524.9 90.712 525.412 90.968 525.732 91.416C525.86 91.608 525.924 91.832 525.924 92.088C525.988 92.344 526.084 92.6 526.212 92.856V93.912C526.276 94.36 526.276 94.84 526.212 95.352C526.212 95.864 526.212 96.344 526.212 96.792C526.212 97.304 526.212 97.816 526.212 98.328C526.276 98.776 526.276 99.224 526.212 99.672C526.148 99.992 526.116 100.472 526.116 101.112C525.924 101.88 525.604 102.392 525.156 102.648C524.772 102.904 524.292 103.032 523.716 103.032C523.14 103.032 522.532 103.032 521.892 103.032H515.268H497.892C497.38 103.032 496.772 103.032 496.068 103.032C495.428 102.968 494.756 102.968 494.052 103.032C493.412 103.032 492.804 103.096 492.228 103.224C491.652 103.288 491.236 103.416 490.98 103.608C490.532 103.928 490.244 104.408 490.116 105.048C490.052 105.624 490.02 106.296 490.02 107.064V112.536V115.32C490.148 115.832 490.276 116.28 490.404 116.664C490.532 116.984 490.756 117.24 491.076 117.432C491.46 117.688 491.908 117.848 492.42 117.912C492.932 117.912 493.476 117.912 494.052 117.912H499.236H515.748C516.196 117.912 516.74 117.912 517.38 117.912C518.084 117.848 518.756 117.848 519.396 117.912C520.036 117.912 520.612 117.944 521.124 118.008C521.7 118.072 522.116 118.2 522.372 118.392C522.692 118.584 522.916 118.968 523.044 119.544C523.172 120.12 523.236 120.76 523.236 121.464C523.3 122.104 523.3 122.776 523.236 123.48C523.236 124.184 523.236 124.792 523.236 125.304C523.236 125.752 523.236 126.2 523.236 126.648C523.236 127.096 523.172 127.48 523.044 127.8C522.916 128.312 522.66 128.728 522.276 129.048C521.956 129.24 521.508 129.368 520.932 129.432C520.42 129.496 519.812 129.528 519.108 129.528C518.468 129.528 517.796 129.528 517.092 129.528C516.452 129.464 515.908 129.432 515.46 129.432H496.74C495.972 129.432 495.236 129.432 494.532 129.432C493.828 129.368 493.156 129.4 492.516 129.528C491.94 129.592 491.428 129.784 490.98 130.104C490.596 130.36 490.308 130.776 490.116 131.352C490.052 131.672 490.02 132.024 490.02 132.408C490.02 132.728 490.02 133.048 490.02 133.368V137.016V142.392C490.02 143.16 490.052 143.864 490.116 144.504C490.244 145.08 490.532 145.528 490.98 145.848C491.172 146.04 491.396 146.168 491.652 146.232C491.972 146.232 492.292 146.296 492.612 146.424H493.572C493.892 146.488 494.244 146.52 494.628 146.52C495.012 146.456 495.364 146.424 495.684 146.424H499.716H517.764H522.852C523.364 146.424 523.844 146.424 524.292 146.424C524.804 146.424 525.252 146.52 525.636 146.712C526.148 146.904 526.5 147.256 526.692 147.768C526.82 148.088 526.884 148.472 526.884 148.92C526.948 149.368 526.98 149.848 526.98 150.36V154.776C526.98 155.544 526.948 156.28 526.884 156.984C526.82 157.624 526.532 158.104 526.02 158.424C525.636 158.744 525.124 158.904 524.484 158.904C523.908 158.904 523.268 158.904 522.564 158.904H515.364H486.948H479.364C478.468 158.904 477.668 158.872 476.964 158.808C476.324 158.68 475.844 158.36 475.524 157.848C475.268 157.464 475.14 156.984 475.14 156.408C475.14 155.768 475.14 155.16 475.14 154.584V147.672V121.56V100.632V94.68C475.14 94.104 475.14 93.528 475.14 92.952C475.14 92.376 475.268 91.928 475.524 91.608C475.78 91.16 476.26 90.84 476.964 90.648C477.092 90.584 477.22 90.584 477.348 90.648C477.476 90.648 477.604 90.616 477.732 90.552ZM584.334 153.528C584.334 154.424 584.334 155.32 584.334 156.216C584.334 157.048 584.142 157.72 583.758 158.232C583.438 158.552 583.022 158.776 582.51 158.904C581.998 158.968 581.422 159 580.782 159H575.502C574.862 159 574.254 159 573.678 159C573.166 158.936 572.75 158.776 572.43 158.52C571.982 158.2 571.726 157.784 571.662 157.272C571.598 156.76 571.47 156.248 571.278 155.736C571.15 155.608 571.022 155.512 570.894 155.448C570.83 155.32 570.734 155.192 570.606 155.064C569.902 155.064 569.39 155.224 569.07 155.544C568.75 155.864 568.43 156.184 568.11 156.504C567.662 156.824 567.246 157.112 566.862 157.368C566.478 157.56 566.062 157.816 565.614 158.136C565.358 158.264 565.07 158.392 564.75 158.52C564.494 158.648 564.206 158.776 563.886 158.904C562.99 159.224 562.03 159.512 561.006 159.768C560.686 159.896 560.398 159.96 560.142 159.96C559.886 159.96 559.63 159.992 559.374 160.056C559.054 160.056 558.766 160.056 558.51 160.056C558.318 160.12 558.062 160.152 557.742 160.152H556.878C556.494 160.28 555.918 160.312 555.15 160.248C554.382 160.248 553.838 160.184 553.518 160.056C553.07 159.928 552.654 159.864 552.27 159.864C551.95 159.928 551.598 159.896 551.214 159.768C550.446 159.512 549.678 159.256 548.91 159C548.206 158.808 547.502 158.552 546.798 158.232C544.558 157.272 542.542 155.8 540.75 153.816C539.022 151.768 537.646 149.624 536.622 147.384C536.302 146.68 536.046 146.008 535.854 145.368C535.662 144.664 535.438 143.96 535.182 143.256C535.118 143 535.086 142.776 535.086 142.584C535.086 142.328 535.022 142.04 534.894 141.72C534.766 141.208 534.638 140.664 534.51 140.088C534.446 139.448 534.35 138.808 534.222 138.168C534.158 137.976 534.126 137.752 534.126 137.496C534.19 137.24 534.19 137.016 534.126 136.824C534.126 136.504 534.126 136.216 534.126 135.96C534.126 135.64 534.094 135.32 534.03 135C533.966 134.68 533.934 134.328 533.934 133.944C533.934 133.496 533.966 133.144 534.03 132.888C534.094 132.568 534.126 132.28 534.126 132.024C534.126 131.704 534.126 131.384 534.126 131.064C534.19 130.744 534.19 130.456 534.126 130.2C534.126 129.88 534.19 129.56 534.318 129.24C534.446 128.536 534.542 127.864 534.606 127.224C534.734 126.584 534.894 125.944 535.086 125.304C535.342 124.536 535.566 123.8 535.758 123.096C535.95 122.392 536.206 121.688 536.526 120.984C537.422 119.064 538.542 117.24 539.886 115.512C540.014 115.32 540.174 115.16 540.366 115.032C540.622 114.84 540.814 114.648 540.942 114.456C541.198 114.136 541.454 113.848 541.71 113.592C541.966 113.336 542.254 113.08 542.574 112.824C542.83 112.696 543.054 112.536 543.246 112.344C543.438 112.088 543.662 111.896 543.918 111.768C545.518 110.68 547.374 109.784 549.486 109.08C549.934 108.952 550.382 108.856 550.83 108.792C551.342 108.728 551.854 108.632 552.366 108.504C552.814 108.376 553.39 108.312 554.094 108.312C554.798 108.248 555.502 108.216 556.206 108.216C556.91 108.216 557.582 108.248 558.222 108.312C558.926 108.376 559.502 108.472 559.95 108.6C560.91 108.92 561.838 109.208 562.734 109.464C563.63 109.72 564.462 110.072 565.23 110.52C565.678 110.84 566.094 111.16 566.478 111.48C566.862 111.736 567.278 112.024 567.726 112.344C567.982 112.536 568.334 112.792 568.782 113.112C569.294 113.432 569.774 113.432 570.222 113.112C570.478 112.984 570.606 112.76 570.606 112.44C570.606 112.12 570.67 111.8 570.798 111.48V110.52C570.862 110.328 570.894 110.104 570.894 109.848C570.894 109.592 570.894 109.336 570.894 109.08V96.024C570.894 95.32 570.862 94.552 570.798 93.72C570.798 92.824 570.958 92.152 571.278 91.704C571.534 91.192 572.014 90.872 572.718 90.744C572.846 90.68 572.974 90.68 573.102 90.744C573.23 90.744 573.358 90.712 573.486 90.648H580.302C581.07 90.648 581.774 90.68 582.414 90.744C583.054 90.808 583.534 91.064 583.854 91.512C584.174 92.024 584.334 92.696 584.334 93.528C584.334 94.296 584.334 95.064 584.334 95.832V153.528ZM571.278 134.712C571.342 134.456 571.342 134.2 571.278 133.944C571.278 133.624 571.278 133.336 571.278 133.08C571.278 132.44 571.246 131.8 571.182 131.16C571.118 130.52 571.022 129.944 570.894 129.432C570.766 128.728 570.638 128.088 570.51 127.512C570.446 126.936 570.286 126.392 570.03 125.88C569.134 123.576 567.822 121.752 566.094 120.408C564.43 119.064 561.998 118.392 558.798 118.392C558.414 118.392 557.902 118.456 557.262 118.584C556.75 118.712 556.27 118.84 555.822 118.968C555.438 119.032 555.054 119.16 554.67 119.352C552.942 120.056 551.598 121.144 550.638 122.616C549.678 124.088 548.91 125.752 548.334 127.608C548.142 128.248 548.014 128.888 547.95 129.528C547.886 130.168 547.758 130.84 547.566 131.544V132.888C547.438 133.464 547.406 134.264 547.47 135.288C547.534 136.248 547.63 136.952 547.758 137.4C547.758 137.592 547.758 137.784 547.758 137.976C547.822 138.104 547.854 138.232 547.854 138.36C547.982 138.872 548.078 139.352 548.142 139.8C548.27 140.248 548.398 140.728 548.526 141.24C549.614 144.568 551.47 147.032 554.094 148.632C554.926 149.208 556.078 149.656 557.55 149.976C557.806 150.04 558.19 150.072 558.702 150.072C558.894 150.136 559.182 150.2 559.566 150.264C560.014 150.264 560.366 150.232 560.622 150.168C561.134 150.04 561.646 149.944 562.158 149.88C562.67 149.816 563.182 149.688 563.694 149.496C565.294 148.792 566.574 147.896 567.534 146.808C568.494 145.72 569.326 144.344 570.03 142.68C570.286 142.104 570.478 141.528 570.606 140.952C570.734 140.312 570.862 139.64 570.99 138.936C571.054 138.616 571.054 138.328 570.99 138.072C570.99 137.752 571.054 137.432 571.182 137.112C571.246 136.92 571.278 136.696 571.278 136.44C571.278 136.184 571.278 135.896 571.278 135.576V134.712ZM597.133 109.56H604.333C605.037 109.56 605.677 109.592 606.253 109.656C606.829 109.72 607.245 109.944 607.501 110.328C607.821 110.712 608.013 111.256 608.077 111.96C608.141 112.6 608.173 113.272 608.173 113.976V120.696V135C608.173 137.304 608.269 139.48 608.461 141.528C608.653 143.576 609.229 145.272 610.189 146.616C611.085 147.96 612.525 148.92 614.509 149.496C614.829 149.56 615.085 149.592 615.277 149.592C615.533 149.592 615.821 149.624 616.141 149.688C616.461 149.752 616.813 149.784 617.197 149.784C617.581 149.784 617.869 149.752 618.061 149.688C618.381 149.56 618.637 149.528 618.829 149.592C619.085 149.656 619.341 149.624 619.597 149.496C620.941 149.176 621.997 148.76 622.765 148.248C623.917 147.544 624.813 146.648 625.453 145.56C626.157 144.408 626.637 143.16 626.893 141.816C627.213 140.408 627.405 138.872 627.469 137.208C627.533 135.48 627.565 133.688 627.565 131.832V120.216V113.976C627.565 113.4 627.565 112.824 627.565 112.248C627.565 111.608 627.693 111.096 627.949 110.712C628.269 110.136 628.749 109.816 629.389 109.752C630.029 109.624 630.797 109.56 631.693 109.56H636.781C637.421 109.56 638.029 109.56 638.605 109.56C639.181 109.56 639.661 109.688 640.045 109.944C640.557 110.264 640.845 110.744 640.909 111.384C640.973 112.024 641.005 112.76 641.005 113.592V120.888V147.864V154.68C641.005 155.32 641.005 155.96 641.005 156.6C641.005 157.24 640.877 157.72 640.621 158.04C640.301 158.552 639.821 158.84 639.181 158.904C638.541 158.968 637.869 159 637.165 159H631.981C631.277 159 630.637 158.968 630.061 158.904C629.549 158.84 629.133 158.584 628.813 158.136C628.685 157.944 628.557 157.656 628.429 157.272C628.365 156.888 628.269 156.504 628.141 156.12C628.077 155.736 627.981 155.384 627.853 155.064C627.725 154.744 627.533 154.552 627.277 154.488C627.149 154.36 626.989 154.328 626.797 154.392C626.605 154.456 626.445 154.52 626.317 154.584C625.869 154.84 625.485 155.128 625.165 155.448C624.845 155.768 624.493 156.056 624.109 156.312C623.853 156.504 623.597 156.728 623.341 156.984C623.149 157.176 622.893 157.368 622.573 157.56C621.101 158.456 619.373 159.16 617.389 159.672C616.941 159.8 616.493 159.864 616.045 159.864C615.597 159.928 615.117 160.024 614.605 160.152C614.349 160.216 614.061 160.216 613.741 160.152C613.485 160.152 613.229 160.184 612.973 160.248C612.781 160.312 612.365 160.312 611.725 160.248C611.149 160.248 610.765 160.216 610.573 160.152C610.253 160.152 609.933 160.12 609.613 160.056C609.293 160.056 608.973 160.056 608.653 160.056C607.885 159.864 607.149 159.704 606.445 159.576C605.741 159.448 605.037 159.256 604.333 159C604.013 158.872 603.725 158.776 603.469 158.712C603.277 158.584 603.021 158.456 602.701 158.328C600.461 157.112 598.669 155.416 597.325 153.24C596.493 151.896 595.885 150.296 595.501 148.44C595.117 146.52 594.861 144.504 594.733 142.392C594.669 140.216 594.637 138.008 594.637 135.768C594.701 133.464 594.733 131.192 594.733 128.952V115.896C594.733 115.064 594.701 114.104 594.637 113.016C594.637 111.864 594.797 111.032 595.117 110.52C595.309 110.2 595.693 109.912 596.269 109.656C596.653 109.656 596.941 109.624 597.133 109.56Z" fill="#00FC93"/>
<defs>
<linearGradient id="paint0_linear_337_2305" x1="18.931" y1="43.069" x2="189.31" y2="192.414" gradientUnits="userSpaceOnUse">
<stop stop-color="#00FC93"/>
<stop offset="1" stop-color="#00ACEF"/>
</linearGradient>
</defs>
</svg>
